# xmcd
#
# Track frame offsets: 
#        150
#        14291
#        29450
#        51418
#        72406
#        99993
#        125539
#        142941
#        166931
#        193875
#        221203
#        243477
#        263444
#
# Disc length: 3755 seconds
#
# Revision: 1
# Processed by: cddbd v1.5.2PL0 Copyright (c) Steve Scherf et al.
# Submitted via: ExactAudioCopyFreeDBPlugin 1.0
#
DISCID=bc0ea90d
DTITLE=Carey Bell - Harpslinger - Featuring Lurrie Bell (SACD)
DYEAR=2004
DGENRE=Blues
TTITLE0=What my mama told me
TTITLE1=Pretty baby
TTITLE2=Blues with a feeling
TTITLE3=85%
TTITLE4=Sweet little woman
TTITLE5=It's so easy to love you
TTITLE6=Strange woman
TTITLE7=Last night
TTITLE8=Blues with a feeling (Alternative)
TTITLE9=I'm your 44
TTITLE10=Going back to Louisiana
TTITLE11=Everybody wants to win
TTITLE12=I'm your 44 (Alternative)
EXTD=
EXTT0=
EXTT1=
EXTT2=
EXTT3=
EXTT4=
EXTT5=
EXTT6=
EXTT7=
EXTT8=
EXTT9=
EXTT10=
EXTT11=
EXTT12=
PLAYORDER=
